<mxfile host="app.diagrams.net" modified="2024-02-26T13:40:13.293Z" agent="Mozilla/5.0 (Windows NT 10.0; Win64; x64) AppleWebKit/537.36 (KHTML, like Gecko) Chrome/122.0.0.0 Safari/537.36 Edg/122.0.0.0" etag="DR0beEdANJ5H-VsgXvkS" version="23.1.6" type="github">
  <diagram name="Page-1" id="qonnQ67EhSLWwkcI0bnF">
    <mxGraphModel dx="956" dy="535" grid="1" gridSize="10" guides="1" tooltips="1" connect="1" arrows="1" fold="1" page="1" pageScale="1" pageWidth="850" pageHeight="1100" math="0" shadow="0">
      <root>
        <mxCell id="0" />
        <mxCell id="1" parent="0" />
        <mxCell id="g6oeGDb9uloU3DoNvfut-1" value="Library Management System" style="swimlane;startSize=50;fontSize=14;labelBackgroundColor=default;" vertex="1" parent="1">
          <mxGeometry x="170" y="50" width="470" height="850" as="geometry" />
        </mxCell>
        <mxCell id="g6oeGDb9uloU3DoNvfut-6" value="reserve book" style="ellipse;whiteSpace=wrap;html=1;" vertex="1" parent="g6oeGDb9uloU3DoNvfut-1">
          <mxGeometry x="140" y="300" width="100" height="30" as="geometry" />
        </mxCell>
        <mxCell id="g6oeGDb9uloU3DoNvfut-14" value="borrow book" style="ellipse;whiteSpace=wrap;html=1;" vertex="1" parent="g6oeGDb9uloU3DoNvfut-1">
          <mxGeometry x="150" y="60" width="100" height="40" as="geometry" />
        </mxCell>
        <mxCell id="g6oeGDb9uloU3DoNvfut-13" value="renew book" style="ellipse;whiteSpace=wrap;html=1;" vertex="1" parent="g6oeGDb9uloU3DoNvfut-1">
          <mxGeometry x="210" y="110" width="95" height="40" as="geometry" />
        </mxCell>
        <mxCell id="g6oeGDb9uloU3DoNvfut-12" value="return book" style="ellipse;whiteSpace=wrap;html=1;" vertex="1" parent="g6oeGDb9uloU3DoNvfut-1">
          <mxGeometry x="130" y="150" width="90" height="40" as="geometry" />
        </mxCell>
        <mxCell id="g6oeGDb9uloU3DoNvfut-11" value="search&amp;nbsp; catalog" style="ellipse;whiteSpace=wrap;html=1;" vertex="1" parent="g6oeGDb9uloU3DoNvfut-1">
          <mxGeometry x="195" y="190" width="100" height="40" as="geometry" />
        </mxCell>
        <mxCell id="g6oeGDb9uloU3DoNvfut-10" value="manage borrowings" style="ellipse;whiteSpace=wrap;html=1;" vertex="1" parent="g6oeGDb9uloU3DoNvfut-1">
          <mxGeometry x="265" y="560" width="100" height="50" as="geometry" />
        </mxCell>
        <mxCell id="g6oeGDb9uloU3DoNvfut-9" value="check account" style="ellipse;whiteSpace=wrap;html=1;" vertex="1" parent="g6oeGDb9uloU3DoNvfut-1">
          <mxGeometry x="150" y="240" width="105" height="40" as="geometry" />
        </mxCell>
        <mxCell id="g6oeGDb9uloU3DoNvfut-19" value="monitor system" style="ellipse;whiteSpace=wrap;html=1;" vertex="1" parent="g6oeGDb9uloU3DoNvfut-1">
          <mxGeometry x="70" y="510" width="100" height="50" as="geometry" />
        </mxCell>
        <mxCell id="g6oeGDb9uloU3DoNvfut-18" value="remove book" style="ellipse;whiteSpace=wrap;html=1;" vertex="1" parent="g6oeGDb9uloU3DoNvfut-1">
          <mxGeometry x="265" y="510" width="90" height="40" as="geometry" />
        </mxCell>
        <mxCell id="g6oeGDb9uloU3DoNvfut-17" value="manage librarian" style="ellipse;whiteSpace=wrap;html=1;" vertex="1" parent="g6oeGDb9uloU3DoNvfut-1">
          <mxGeometry x="70" y="440" width="100" height="50" as="geometry" />
        </mxCell>
        <mxCell id="g6oeGDb9uloU3DoNvfut-15" value="validate user" style="ellipse;whiteSpace=wrap;html=1;" vertex="1" parent="g6oeGDb9uloU3DoNvfut-1">
          <mxGeometry x="320" y="340" width="80" height="50" as="geometry" />
        </mxCell>
        <mxCell id="g6oeGDb9uloU3DoNvfut-16" value="login" style="ellipse;whiteSpace=wrap;html=1;" vertex="1" parent="g6oeGDb9uloU3DoNvfut-1">
          <mxGeometry x="140" y="350" width="90" height="30" as="geometry" />
        </mxCell>
        <mxCell id="g6oeGDb9uloU3DoNvfut-23" value="" style="endArrow=none;html=1;rounded=0;entryX=1;entryY=0.5;entryDx=0;entryDy=0;" edge="1" parent="g6oeGDb9uloU3DoNvfut-1" target="g6oeGDb9uloU3DoNvfut-11">
          <mxGeometry width="50" height="50" relative="1" as="geometry">
            <mxPoint x="520" y="180" as="sourcePoint" />
            <mxPoint x="370" y="220" as="targetPoint" />
          </mxGeometry>
        </mxCell>
        <mxCell id="g6oeGDb9uloU3DoNvfut-27" value="" style="endArrow=none;html=1;rounded=0;exitX=1;exitY=0.5;exitDx=0;exitDy=0;" edge="1" parent="g6oeGDb9uloU3DoNvfut-1" source="g6oeGDb9uloU3DoNvfut-6">
          <mxGeometry width="50" height="50" relative="1" as="geometry">
            <mxPoint x="320" y="350" as="sourcePoint" />
            <mxPoint x="510" y="180" as="targetPoint" />
          </mxGeometry>
        </mxCell>
        <mxCell id="g6oeGDb9uloU3DoNvfut-28" value="&amp;lt;&amp;lt;include&amp;gt;&amp;gt;" style="endArrow=open;endSize=12;dashed=1;html=1;rounded=0;exitX=0;exitY=0.5;exitDx=0;exitDy=0;entryX=1;entryY=0.5;entryDx=0;entryDy=0;" edge="1" parent="g6oeGDb9uloU3DoNvfut-1" source="g6oeGDb9uloU3DoNvfut-15" target="g6oeGDb9uloU3DoNvfut-16">
          <mxGeometry x="-0.0588" y="-11" width="160" relative="1" as="geometry">
            <mxPoint x="200" y="400" as="sourcePoint" />
            <mxPoint x="360" y="400" as="targetPoint" />
            <mxPoint as="offset" />
          </mxGeometry>
        </mxCell>
        <mxCell id="g6oeGDb9uloU3DoNvfut-40" value="add book" style="ellipse;whiteSpace=wrap;html=1;" vertex="1" parent="g6oeGDb9uloU3DoNvfut-1">
          <mxGeometry x="265" y="460" width="90" height="40" as="geometry" />
        </mxCell>
        <mxCell id="g6oeGDb9uloU3DoNvfut-39" value="manage reservation" style="ellipse;whiteSpace=wrap;html=1;" vertex="1" parent="g6oeGDb9uloU3DoNvfut-1">
          <mxGeometry x="255" y="630" width="120" height="50" as="geometry" />
        </mxCell>
        <mxCell id="g6oeGDb9uloU3DoNvfut-38" value="generate report" style="ellipse;whiteSpace=wrap;html=1;" vertex="1" parent="g6oeGDb9uloU3DoNvfut-1">
          <mxGeometry x="255" y="690" width="100" height="50" as="geometry" />
        </mxCell>
        <mxCell id="g6oeGDb9uloU3DoNvfut-37" value="manage user accounts" style="ellipse;whiteSpace=wrap;html=1;" vertex="1" parent="g6oeGDb9uloU3DoNvfut-1">
          <mxGeometry x="250" y="760" width="105" height="40" as="geometry" />
        </mxCell>
        <mxCell id="g6oeGDb9uloU3DoNvfut-49" value="system update" style="ellipse;whiteSpace=wrap;html=1;" vertex="1" parent="g6oeGDb9uloU3DoNvfut-1">
          <mxGeometry x="65" y="740" width="120" height="50" as="geometry" />
        </mxCell>
        <mxCell id="g6oeGDb9uloU3DoNvfut-51" value="system configuration" style="ellipse;whiteSpace=wrap;html=1;" vertex="1" parent="g6oeGDb9uloU3DoNvfut-1">
          <mxGeometry x="70" y="580" width="110" height="50" as="geometry" />
        </mxCell>
        <mxCell id="g6oeGDb9uloU3DoNvfut-50" value="backup and recovery" style="ellipse;whiteSpace=wrap;html=1;" vertex="1" parent="g6oeGDb9uloU3DoNvfut-1">
          <mxGeometry x="70" y="660" width="125" height="50" as="geometry" />
        </mxCell>
        <mxCell id="g6oeGDb9uloU3DoNvfut-2" value="student" style="shape=umlActor;verticalLabelPosition=bottom;verticalAlign=top;html=1;outlineConnect=0;" vertex="1" parent="1">
          <mxGeometry x="50" y="215" width="50" height="90" as="geometry" />
        </mxCell>
        <mxCell id="g6oeGDb9uloU3DoNvfut-3" value="librarian" style="shape=umlActor;verticalLabelPosition=bottom;verticalAlign=top;html=1;outlineConnect=0;" vertex="1" parent="1">
          <mxGeometry x="710" y="530" width="50" height="90" as="geometry" />
        </mxCell>
        <mxCell id="g6oeGDb9uloU3DoNvfut-4" value="admin" style="shape=umlActor;verticalLabelPosition=bottom;verticalAlign=top;html=1;outlineConnect=0;" vertex="1" parent="1">
          <mxGeometry x="30" y="540" width="50" height="90" as="geometry" />
        </mxCell>
        <mxCell id="g6oeGDb9uloU3DoNvfut-5" value="lecturer" style="shape=umlActor;verticalLabelPosition=bottom;verticalAlign=top;html=1;outlineConnect=0;" vertex="1" parent="1">
          <mxGeometry x="710" y="200" width="50" height="90" as="geometry" />
        </mxCell>
        <mxCell id="g6oeGDb9uloU3DoNvfut-21" value="" style="endArrow=none;html=1;rounded=0;entryX=1;entryY=0.5;entryDx=0;entryDy=0;exitX=0;exitY=0.3333333333333333;exitDx=0;exitDy=0;exitPerimeter=0;" edge="1" parent="1" source="g6oeGDb9uloU3DoNvfut-5" target="g6oeGDb9uloU3DoNvfut-14">
          <mxGeometry width="50" height="50" relative="1" as="geometry">
            <mxPoint x="700" y="260" as="sourcePoint" />
            <mxPoint x="650" y="200" as="targetPoint" />
          </mxGeometry>
        </mxCell>
        <mxCell id="g6oeGDb9uloU3DoNvfut-24" value="" style="endArrow=none;html=1;rounded=0;entryX=1;entryY=0.5;entryDx=0;entryDy=0;exitX=0;exitY=0.3333333333333333;exitDx=0;exitDy=0;exitPerimeter=0;" edge="1" parent="1" source="g6oeGDb9uloU3DoNvfut-5" target="g6oeGDb9uloU3DoNvfut-9">
          <mxGeometry width="50" height="50" relative="1" as="geometry">
            <mxPoint x="680" y="370" as="sourcePoint" />
            <mxPoint x="630" y="310" as="targetPoint" />
          </mxGeometry>
        </mxCell>
        <mxCell id="g6oeGDb9uloU3DoNvfut-20" value="" style="endArrow=none;html=1;rounded=0;entryX=1;entryY=0.5;entryDx=0;entryDy=0;exitX=0;exitY=0.3333333333333333;exitDx=0;exitDy=0;exitPerimeter=0;" edge="1" parent="1" source="g6oeGDb9uloU3DoNvfut-5" target="g6oeGDb9uloU3DoNvfut-13">
          <mxGeometry width="50" height="50" relative="1" as="geometry">
            <mxPoint x="580" y="310" as="sourcePoint" />
            <mxPoint x="530" y="250" as="targetPoint" />
          </mxGeometry>
        </mxCell>
        <mxCell id="g6oeGDb9uloU3DoNvfut-22" value="" style="endArrow=none;html=1;rounded=0;entryX=1;entryY=0.5;entryDx=0;entryDy=0;exitX=0;exitY=0.3333333333333333;exitDx=0;exitDy=0;exitPerimeter=0;" edge="1" parent="1" source="g6oeGDb9uloU3DoNvfut-5" target="g6oeGDb9uloU3DoNvfut-12">
          <mxGeometry width="50" height="50" relative="1" as="geometry">
            <mxPoint x="580" y="330" as="sourcePoint" />
            <mxPoint x="530" y="270" as="targetPoint" />
          </mxGeometry>
        </mxCell>
        <mxCell id="g6oeGDb9uloU3DoNvfut-26" value="" style="endArrow=none;html=1;rounded=0;exitX=1;exitY=0;exitDx=0;exitDy=0;entryX=0;entryY=0.3333333333333333;entryDx=0;entryDy=0;entryPerimeter=0;" edge="1" parent="1" source="g6oeGDb9uloU3DoNvfut-16" target="g6oeGDb9uloU3DoNvfut-5">
          <mxGeometry width="50" height="50" relative="1" as="geometry">
            <mxPoint x="540" y="380" as="sourcePoint" />
            <mxPoint x="590" y="330" as="targetPoint" />
          </mxGeometry>
        </mxCell>
        <mxCell id="g6oeGDb9uloU3DoNvfut-29" value="" style="endArrow=none;html=1;rounded=0;entryX=0;entryY=0.5;entryDx=0;entryDy=0;exitX=1;exitY=0.3333333333333333;exitDx=0;exitDy=0;exitPerimeter=0;" edge="1" parent="1" source="g6oeGDb9uloU3DoNvfut-2" target="g6oeGDb9uloU3DoNvfut-6">
          <mxGeometry width="50" height="50" relative="1" as="geometry">
            <mxPoint x="100" y="290" as="sourcePoint" />
            <mxPoint x="180" y="320" as="targetPoint" />
          </mxGeometry>
        </mxCell>
        <mxCell id="g6oeGDb9uloU3DoNvfut-30" value="" style="endArrow=none;html=1;rounded=0;exitX=1;exitY=0.3333333333333333;exitDx=0;exitDy=0;exitPerimeter=0;entryX=0;entryY=0.5;entryDx=0;entryDy=0;" edge="1" parent="1" source="g6oeGDb9uloU3DoNvfut-2" target="g6oeGDb9uloU3DoNvfut-11">
          <mxGeometry width="50" height="50" relative="1" as="geometry">
            <mxPoint x="120" y="330" as="sourcePoint" />
            <mxPoint x="170" y="280" as="targetPoint" />
          </mxGeometry>
        </mxCell>
        <mxCell id="g6oeGDb9uloU3DoNvfut-31" value="" style="endArrow=none;html=1;rounded=0;entryX=0;entryY=0.5;entryDx=0;entryDy=0;exitX=1;exitY=0.3333333333333333;exitDx=0;exitDy=0;exitPerimeter=0;" edge="1" parent="1" source="g6oeGDb9uloU3DoNvfut-2" target="g6oeGDb9uloU3DoNvfut-16">
          <mxGeometry width="50" height="50" relative="1" as="geometry">
            <mxPoint x="130" y="400" as="sourcePoint" />
            <mxPoint x="180" y="350" as="targetPoint" />
          </mxGeometry>
        </mxCell>
        <mxCell id="g6oeGDb9uloU3DoNvfut-32" value="" style="endArrow=none;html=1;rounded=0;entryX=0;entryY=0.5;entryDx=0;entryDy=0;exitX=1;exitY=0.3333333333333333;exitDx=0;exitDy=0;exitPerimeter=0;" edge="1" parent="1" source="g6oeGDb9uloU3DoNvfut-2" target="g6oeGDb9uloU3DoNvfut-9">
          <mxGeometry width="50" height="50" relative="1" as="geometry">
            <mxPoint x="110" y="320" as="sourcePoint" />
            <mxPoint x="180" y="280" as="targetPoint" />
          </mxGeometry>
        </mxCell>
        <mxCell id="g6oeGDb9uloU3DoNvfut-33" value="" style="endArrow=none;html=1;rounded=0;exitX=1;exitY=0.3333333333333333;exitDx=0;exitDy=0;exitPerimeter=0;entryX=0;entryY=0.5;entryDx=0;entryDy=0;" edge="1" parent="1" source="g6oeGDb9uloU3DoNvfut-2" target="g6oeGDb9uloU3DoNvfut-12">
          <mxGeometry width="50" height="50" relative="1" as="geometry">
            <mxPoint x="130" y="330" as="sourcePoint" />
            <mxPoint x="180" y="280" as="targetPoint" />
          </mxGeometry>
        </mxCell>
        <mxCell id="g6oeGDb9uloU3DoNvfut-34" value="" style="endArrow=none;html=1;rounded=0;exitX=1;exitY=0.3333333333333333;exitDx=0;exitDy=0;exitPerimeter=0;entryX=0;entryY=0.5;entryDx=0;entryDy=0;" edge="1" parent="1" source="g6oeGDb9uloU3DoNvfut-2" target="g6oeGDb9uloU3DoNvfut-13">
          <mxGeometry width="50" height="50" relative="1" as="geometry">
            <mxPoint x="130" y="310" as="sourcePoint" />
            <mxPoint x="180" y="260" as="targetPoint" />
          </mxGeometry>
        </mxCell>
        <mxCell id="g6oeGDb9uloU3DoNvfut-35" value="" style="endArrow=none;html=1;rounded=0;exitX=1;exitY=0.3333333333333333;exitDx=0;exitDy=0;exitPerimeter=0;entryX=0;entryY=0.5;entryDx=0;entryDy=0;" edge="1" parent="1" source="g6oeGDb9uloU3DoNvfut-2" target="g6oeGDb9uloU3DoNvfut-14">
          <mxGeometry width="50" height="50" relative="1" as="geometry">
            <mxPoint x="130" y="250" as="sourcePoint" />
            <mxPoint x="180" y="200" as="targetPoint" />
          </mxGeometry>
        </mxCell>
        <mxCell id="g6oeGDb9uloU3DoNvfut-48" value="" style="endArrow=none;html=1;rounded=0;entryX=0;entryY=1;entryDx=0;entryDy=0;exitX=1;exitY=0.3333333333333333;exitDx=0;exitDy=0;exitPerimeter=0;" edge="1" parent="1" source="g6oeGDb9uloU3DoNvfut-4" target="g6oeGDb9uloU3DoNvfut-16">
          <mxGeometry width="50" height="50" relative="1" as="geometry">
            <mxPoint x="140" y="520" as="sourcePoint" />
            <mxPoint x="190" y="470" as="targetPoint" />
          </mxGeometry>
        </mxCell>
        <mxCell id="g6oeGDb9uloU3DoNvfut-41" value="" style="endArrow=none;html=1;rounded=0;exitX=1;exitY=1;exitDx=0;exitDy=0;entryX=0;entryY=0.3333333333333333;entryDx=0;entryDy=0;entryPerimeter=0;" edge="1" parent="1" source="g6oeGDb9uloU3DoNvfut-16" target="g6oeGDb9uloU3DoNvfut-3">
          <mxGeometry width="50" height="50" relative="1" as="geometry">
            <mxPoint x="580" y="540" as="sourcePoint" />
            <mxPoint x="630" y="490" as="targetPoint" />
          </mxGeometry>
        </mxCell>
        <mxCell id="g6oeGDb9uloU3DoNvfut-42" value="" style="endArrow=none;html=1;rounded=0;exitX=1;exitY=0.5;exitDx=0;exitDy=0;entryX=0;entryY=0.3333333333333333;entryDx=0;entryDy=0;entryPerimeter=0;" edge="1" parent="1" source="g6oeGDb9uloU3DoNvfut-40" target="g6oeGDb9uloU3DoNvfut-3">
          <mxGeometry width="50" height="50" relative="1" as="geometry">
            <mxPoint x="570" y="600" as="sourcePoint" />
            <mxPoint x="620" y="550" as="targetPoint" />
          </mxGeometry>
        </mxCell>
        <mxCell id="g6oeGDb9uloU3DoNvfut-43" value="" style="endArrow=none;html=1;rounded=0;entryX=0;entryY=0.3333333333333333;entryDx=0;entryDy=0;entryPerimeter=0;exitX=1;exitY=0.5;exitDx=0;exitDy=0;" edge="1" parent="1" source="g6oeGDb9uloU3DoNvfut-18" target="g6oeGDb9uloU3DoNvfut-3">
          <mxGeometry width="50" height="50" relative="1" as="geometry">
            <mxPoint x="590" y="630" as="sourcePoint" />
            <mxPoint x="640" y="580" as="targetPoint" />
          </mxGeometry>
        </mxCell>
        <mxCell id="g6oeGDb9uloU3DoNvfut-44" value="" style="endArrow=none;html=1;rounded=0;entryX=0;entryY=0.3333333333333333;entryDx=0;entryDy=0;entryPerimeter=0;exitX=1;exitY=0.5;exitDx=0;exitDy=0;" edge="1" parent="1" source="g6oeGDb9uloU3DoNvfut-10" target="g6oeGDb9uloU3DoNvfut-3">
          <mxGeometry width="50" height="50" relative="1" as="geometry">
            <mxPoint x="580" y="660" as="sourcePoint" />
            <mxPoint x="630" y="610" as="targetPoint" />
          </mxGeometry>
        </mxCell>
        <mxCell id="g6oeGDb9uloU3DoNvfut-45" value="" style="endArrow=none;html=1;rounded=0;entryX=0;entryY=0.3333333333333333;entryDx=0;entryDy=0;entryPerimeter=0;exitX=1;exitY=0.5;exitDx=0;exitDy=0;" edge="1" parent="1" source="g6oeGDb9uloU3DoNvfut-39" target="g6oeGDb9uloU3DoNvfut-3">
          <mxGeometry width="50" height="50" relative="1" as="geometry">
            <mxPoint x="570" y="690" as="sourcePoint" />
            <mxPoint x="620" y="640" as="targetPoint" />
          </mxGeometry>
        </mxCell>
        <mxCell id="g6oeGDb9uloU3DoNvfut-46" value="" style="endArrow=none;html=1;rounded=0;entryX=0;entryY=0.3333333333333333;entryDx=0;entryDy=0;entryPerimeter=0;exitX=1;exitY=0.5;exitDx=0;exitDy=0;" edge="1" parent="1" source="g6oeGDb9uloU3DoNvfut-38" target="g6oeGDb9uloU3DoNvfut-3">
          <mxGeometry width="50" height="50" relative="1" as="geometry">
            <mxPoint x="570" y="730" as="sourcePoint" />
            <mxPoint x="620" y="680" as="targetPoint" />
          </mxGeometry>
        </mxCell>
        <mxCell id="g6oeGDb9uloU3DoNvfut-47" value="" style="endArrow=none;html=1;rounded=0;entryX=0;entryY=0.3333333333333333;entryDx=0;entryDy=0;entryPerimeter=0;exitX=1;exitY=0.5;exitDx=0;exitDy=0;" edge="1" parent="1" source="g6oeGDb9uloU3DoNvfut-37" target="g6oeGDb9uloU3DoNvfut-3">
          <mxGeometry width="50" height="50" relative="1" as="geometry">
            <mxPoint x="560" y="780" as="sourcePoint" />
            <mxPoint x="610" y="730" as="targetPoint" />
          </mxGeometry>
        </mxCell>
        <mxCell id="g6oeGDb9uloU3DoNvfut-53" value="" style="endArrow=none;html=1;rounded=0;entryX=0;entryY=0.5;entryDx=0;entryDy=0;exitX=1;exitY=0.3333333333333333;exitDx=0;exitDy=0;exitPerimeter=0;" edge="1" parent="1" source="g6oeGDb9uloU3DoNvfut-4" target="g6oeGDb9uloU3DoNvfut-19">
          <mxGeometry width="50" height="50" relative="1" as="geometry">
            <mxPoint x="90" y="680" as="sourcePoint" />
            <mxPoint x="190" y="570" as="targetPoint" />
          </mxGeometry>
        </mxCell>
        <mxCell id="g6oeGDb9uloU3DoNvfut-54" value="" style="endArrow=none;html=1;rounded=0;exitX=1;exitY=0.3333333333333333;exitDx=0;exitDy=0;exitPerimeter=0;entryX=0;entryY=0.5;entryDx=0;entryDy=0;" edge="1" parent="1" source="g6oeGDb9uloU3DoNvfut-4" target="g6oeGDb9uloU3DoNvfut-51">
          <mxGeometry width="50" height="50" relative="1" as="geometry">
            <mxPoint x="120" y="620" as="sourcePoint" />
            <mxPoint x="170" y="570" as="targetPoint" />
          </mxGeometry>
        </mxCell>
        <mxCell id="g6oeGDb9uloU3DoNvfut-55" value="" style="endArrow=none;html=1;rounded=0;exitX=1;exitY=0.3333333333333333;exitDx=0;exitDy=0;exitPerimeter=0;entryX=0;entryY=0.5;entryDx=0;entryDy=0;" edge="1" parent="1" source="g6oeGDb9uloU3DoNvfut-4" target="g6oeGDb9uloU3DoNvfut-50">
          <mxGeometry width="50" height="50" relative="1" as="geometry">
            <mxPoint x="120" y="630" as="sourcePoint" />
            <mxPoint x="170" y="580" as="targetPoint" />
          </mxGeometry>
        </mxCell>
        <mxCell id="g6oeGDb9uloU3DoNvfut-56" value="" style="endArrow=none;html=1;rounded=0;entryX=0;entryY=0.5;entryDx=0;entryDy=0;exitX=1;exitY=0.3333333333333333;exitDx=0;exitDy=0;exitPerimeter=0;" edge="1" parent="1" source="g6oeGDb9uloU3DoNvfut-4" target="g6oeGDb9uloU3DoNvfut-49">
          <mxGeometry width="50" height="50" relative="1" as="geometry">
            <mxPoint x="110" y="750" as="sourcePoint" />
            <mxPoint x="160" y="700" as="targetPoint" />
          </mxGeometry>
        </mxCell>
        <mxCell id="g6oeGDb9uloU3DoNvfut-52" value="" style="endArrow=none;html=1;rounded=0;entryX=0;entryY=0.5;entryDx=0;entryDy=0;exitX=1;exitY=0.3333333333333333;exitDx=0;exitDy=0;exitPerimeter=0;" edge="1" parent="1" source="g6oeGDb9uloU3DoNvfut-4" target="g6oeGDb9uloU3DoNvfut-17">
          <mxGeometry width="50" height="50" relative="1" as="geometry">
            <mxPoint x="90" y="670" as="sourcePoint" />
            <mxPoint x="200" y="525" as="targetPoint" />
          </mxGeometry>
        </mxCell>
      </root>
    </mxGraphModel>
  </diagram>
</mxfile>
